<?xml version="1.0" encoding="utf-8"?>
<!-- Generator: Adobe Illustrator 15.1.0, SVG Export Plug-In . SVG Version: 6.00 Build 0)  -->
<!DOCTYPE svg PUBLIC "-//W3C//DTD SVG 1.1//EN" "http://www.w3.org/Graphics/SVG/1.1/DTD/svg11.dtd">
<svg version="1.1" id="Layer_1" xmlns="http://www.w3.org/2000/svg" xmlns:xlink="http://www.w3.org/1999/xlink" x="0px" y="0px"
	 width="64px" height="64px" viewBox="0 0 64 64" enable-background="new 0 0 64 64" xml:space="preserve">
<g>
	<g>
		<path fill="#D2D2CE" d="M6.264,11.609V7.486c4.552,0.016,7.127-1.475,7.72-4.468h4.971v33.126h-7.582V11.609H6.264z"/>
	</g>
</g>
<g>
	<path d="M7.675,11.609V7.486c4.552,0.016,7.124-1.475,7.72-4.468h4.971v33.126h-7.582V11.609H7.675z"/>
</g>
<g>
	<defs>
		<circle id="SVGID_1_" cx="41.343" cy="19.535" r="16.613"/>
	</defs>
	<use xlink:href="#SVGID_1_"  overflow="visible" fill="#D2D2CE"/>
	<clipPath id="SVGID_2_">
		<use xlink:href="#SVGID_1_"  overflow="visible"/>
	</clipPath>
	<circle clip-path="url(#SVGID_2_)" fill="#D2D2CE" cx="39.405" cy="19.535" r="16.613"/>
	<circle clip-path="url(#SVGID_2_)" fill="#D2D2CE" cx="41.343" cy="19.535" r="16.613"/>
	<polygon clip-path="url(#SVGID_2_)" fill="#D2D2CE" points="22.785,28.364 41.386,7.549 58.867,27.224 54.243,31.106 
		41.394,16.562 28.12,31.552 	"/>
</g>
<g>
	<defs>
		<circle id="SVGID_3_" cx="39.405" cy="19.535" r="16.613"/>
	</defs>
	<clipPath id="SVGID_4_">
		<use xlink:href="#SVGID_3_"  overflow="visible"/>
	</clipPath>
	<circle clip-path="url(#SVGID_4_)" fill="#1D1D1B" cx="37.466" cy="19.535" r="16.613"/>
	<circle clip-path="url(#SVGID_4_)" cx="39.405" cy="19.535" r="16.613"/>
	<polygon clip-path="url(#SVGID_4_)" fill="#FFFFFF" points="20.847,28.364 39.447,7.549 56.928,27.224 52.305,31.106 
		39.455,16.562 26.181,31.552 	"/>
</g>
<g>
	<g>
		<path fill="#D2D2CE" d="M19.711,54.88h0.864v1.301h-0.864v1.219c0.002,0.679,0.291,1.059,0.864,1.142v1.908
			c-2.382-0.069-3.574-1.143-3.578-3.218V54.28c0.009-1.951,1.203-2.956,3.578-3.015v1.928c-0.548,0.063-0.835,0.403-0.864,1.015
			V54.88z M21.019,56.181V54.88h0.918v-0.672c0.013-0.593-0.296-0.929-0.918-1.008v-1.926c2.41,0.059,3.612,1.077,3.605,3.06
			l-0.009,1.847H21.019z M24.615,57.267c0.011,2.029-1.187,3.089-3.597,3.183v-1.917c0.616-0.097,0.923-0.473,0.918-1.133v-0.246
			h2.678V57.267z"/>
		<path fill="#D2D2CE" d="M25.677,60.236V47.454h2.66v12.782H25.677z M29.425,53.104c-0.224,0-0.439,0.08-0.638,0.246v-1.554
			c0.508-0.339,1.135-0.502,1.883-0.495c1.722-0.012,2.575,1.048,2.564,3.182v2.882c0.004,1.962-0.795,2.959-2.405,2.987
			c-0.791-0.018-1.469-0.196-2.042-0.539v-1.503c0.242,0.19,0.508,0.275,0.797,0.258c0.607,0.004,0.916-0.271,0.927-0.831v-3.415
			C30.554,53.523,30.191,53.115,29.425,53.104z"/>
		<path fill="#D2D2CE" d="M45.345,50.303v-2.06h2.66v2.06H45.345z M45.345,60.236v-8.731h2.633v8.731H45.345z"/>
		<path fill="#D2D2CE" d="M49.162,51.496h1.053v2.033h-1.053V51.496z M50.533,48.852h2.624v8.496c0,0.824,0.35,1.238,1.053,1.238
			c0.241,0,0.539-0.026,0.894-0.08l0.018,1.829c-0.123,0.022-0.293,0.047-0.504,0.071c-0.213,0.022-0.473,0.05-0.777,0.079
			c-2.205-0.012-3.307-1.001-3.307-2.97V48.852z M53.538,53.529v-2.033h1.142v2.033H53.538z"/>
		<path fill="#D2D2CE" d="M59.026,54.88h0.867v1.301h-0.867v1.219c0.007,0.679,0.296,1.059,0.867,1.142v1.908
			c-2.381-0.069-3.574-1.143-3.581-3.218V54.28c0.014-1.951,1.207-2.956,3.581-3.015v1.928c-0.549,0.063-0.836,0.403-0.867,1.015
			V54.88z M60.334,56.181V54.88h0.921v-0.672c0.011-0.593-0.296-0.929-0.921-1.008v-1.926c2.412,0.059,3.614,1.077,3.607,3.06
			l-0.009,1.847H60.334z M63.933,57.267c0.012,2.029-1.187,3.089-3.599,3.183v-1.917c0.62-0.097,0.928-0.473,0.921-1.133v-0.246
			h2.678V57.267z"/>
	</g>
	<g>
		<path fill="#D2D2CE" d="M3.651,44.667l2.951,15.686H3.976L0.16,44.667H3.651z M7.652,44.667h3.027l3.57,15.686H11.45l-2.266-10.89
			l-2.085,9.556l-1.236-6.432L7.652,44.667z M14.672,58.759l-1.466-6.271l1.509-7.821h3.471L14.672,58.759z"/>
	</g>
	<g>
		<path fill="#D2D2CE" d="M37.048,55.46c0.04,1.375,0.618,2.127,1.737,2.257v2.712c-3.148-0.146-4.723-1.803-4.723-4.969H37.048z
			 M44.088,56.425c0,2.575-1.522,3.91-4.565,4.004v-2.702c1.008-0.079,1.514-0.5,1.522-1.257c-0.069-0.564-0.336-1.034-0.802-1.41
			c-1.5-1.353-2.899-2.531-4.201-3.536c-0.934-0.854-1.491-1.966-1.673-3.341c-0.006-2.589,1.458-3.933,4.39-4.024v2.636
			c-0.847,0.087-1.279,0.481-1.297,1.183c-0.083,0.593,0.069,1.036,0.457,1.332c1.592,1.261,2.712,2.147,3.358,2.669
			c0.323,0.253,0.569,0.45,0.744,0.594c0.17,0.139,0.264,0.217,0.284,0.232C43.492,53.816,44.088,55.023,44.088,56.425z
			 M40.859,48.682c-0.014-1.113-0.459-1.74-1.337-1.877v-2.646c2.982,0.123,4.472,1.626,4.472,4.512L40.859,48.682z"/>
	</g>
</g>
<g>
	<g>
		<path d="M19.767,55.396h0.867v1.301h-0.867v1.22c0.004,0.677,0.293,1.058,0.867,1.141v1.907c-2.383-0.069-3.574-1.142-3.581-3.215
			v-2.954c0.011-1.95,1.205-2.954,3.581-3.014v1.928c-0.549,0.064-0.838,0.403-0.867,1.015V55.396z M21.075,56.696v-1.301h0.918
			v-0.672c0.014-0.594-0.293-0.93-0.918-1.006V51.79c2.412,0.058,3.612,1.079,3.607,3.059l-0.009,1.848H21.075z M24.673,57.782
			c0.011,2.028-1.187,3.088-3.599,3.182v-1.917c0.618-0.094,0.925-0.472,0.918-1.131v-0.248h2.681V57.782z"/>
		<path d="M25.735,60.754V47.972h2.658v12.782H25.735z M29.481,53.619c-0.224,0-0.437,0.083-0.636,0.249v-1.557
			c0.506-0.336,1.133-0.502,1.881-0.495c1.724-0.011,2.578,1.051,2.564,3.183v2.882c0.007,1.962-0.795,2.958-2.403,2.987
			c-0.791-0.019-1.471-0.197-2.042-0.54v-1.503c0.242,0.19,0.506,0.276,0.795,0.258c0.607,0.005,0.916-0.271,0.929-0.831V54.84
			C30.61,54.038,30.247,53.631,29.481,53.619z"/>
		<path d="M45.402,50.818v-2.061h2.66v2.061H45.402z M45.402,60.754v-8.733h2.634v8.733H45.402z"/>
		<path d="M49.221,52.012h1.05v2.033h-1.05V52.012z M50.591,49.369h2.625v8.493c0,0.824,0.349,1.239,1.05,1.239
			c0.244,0,0.54-0.027,0.896-0.081l0.019,1.829c-0.126,0.025-0.294,0.048-0.507,0.072c-0.21,0.024-0.47,0.049-0.776,0.078
			c-2.204-0.011-3.306-1.001-3.306-2.97V49.369z M53.596,54.045v-2.033h1.141v2.033H53.596z"/>
		<path d="M59.085,55.396h0.866v1.301h-0.866v1.22c0.007,0.677,0.295,1.058,0.866,1.141v1.907c-2.38-0.069-3.574-1.142-3.58-3.215
			v-2.954c0.011-1.95,1.204-2.954,3.58-3.014v1.928c-0.549,0.064-0.837,0.403-0.866,1.015V55.396z M60.393,56.696v-1.301h0.92
			v-0.672c0.012-0.594-0.295-0.93-0.92-1.006V51.79c2.409,0.058,3.612,1.079,3.607,3.059l-0.009,1.848H60.393z M63.991,57.782
			c0.011,2.028-1.189,3.088-3.599,3.182v-1.917c0.62-0.094,0.925-0.472,0.92-1.131v-0.248h2.679V57.782z"/>
	</g>
	<g>
		<path d="M3.707,45.184l2.952,15.685H4.034L0.216,45.184H3.707z M7.71,45.184h3.028l3.569,15.685h-2.799l-2.266-10.89l-2.084,9.555
			l-1.236-6.432L7.71,45.184z M14.729,59.273l-1.464-6.27l1.509-7.82h3.469L14.729,59.273z"/>
	</g>
	<g>
		<path d="M37.105,55.978c0.038,1.372,0.616,2.125,1.736,2.255v2.712c-3.146-0.146-4.721-1.801-4.721-4.967H37.105z M44.145,56.942
			c0,2.573-1.521,3.907-4.564,4.002v-2.701c1.008-0.078,1.514-0.499,1.521-1.258c-0.069-0.564-0.333-1.035-0.802-1.411
			c-1.498-1.353-2.899-2.53-4.2-3.536c-0.935-0.853-1.489-1.966-1.671-3.341c-0.007-2.589,1.455-3.93,4.389-4.024v2.636
			c-0.849,0.088-1.28,0.481-1.299,1.183c-0.08,0.594,0.072,1.037,0.457,1.335c1.595,1.258,2.712,2.147,3.361,2.667
			c0.322,0.253,0.568,0.45,0.741,0.593c0.173,0.142,0.267,0.218,0.284,0.233C43.551,54.331,44.145,55.538,44.145,56.942z
			 M40.915,49.196c-0.014-1.112-0.457-1.739-1.335-1.876v-2.647c2.98,0.124,4.47,1.626,4.47,4.513L40.915,49.196z"/>
	</g>
</g>
</svg>
